<?xml version='1.0' encoding='UTF-8' standalone='no'?>
<svg viewBox="0 0 2970 2100" baseProfile="tiny" height="210mm" version="1.2" xmlns:svg="http://www.w3.org/2000/svg" xmlns:rdf="http://www.w3.org/1999/02/22-rdf-syntax-ns#" xmlns:xlink="http://www.w3.org/1999/xlink" width="297mm" xmlns:dc="http://purl.org/dc/elements/1.1/" xmlns:cc="http://creativecommons.org/ns#" xmlns="http://www.w3.org/2000/svg" xmlns:freecad="http://www.freecadweb.org/wiki/index.php?title=Svg_Namespace">
 <title>FreeCAD SVG Export</title>
 <desc>Drawing page: Page002 exported from FreeCAD document: BoomBox</desc>
 <defs/>
 <g id="Page002">
  <g id="A4_Landscape_ISO7200TD.svg" transform="scale(10.000000, 10.000000)" style="stroke: none;">
   <!-- Working space 10 10 287 200 -->
   <!-- Title block 107 162 287 200 -->
   <g>
    <rect id="drawing-border" height="180" style="fill:none;stroke:#000000;stroke-width:0.35;stroke-linecap:miter;stroke-miterlimit:4" y="20" width="277" x="10"/>
    <!-- width-20, height-20 -->
    <g transform="translate(87,-65)">
     <!-- A4 Portrait based for other formats width-210, height-297 -->
     <!--        page       rect   translation
                     w    h    rw   rh   tx   ty
              A4-P  210  297  180  277    0    0
              A3-L  420  297  390  277  210    0
              A2-L  594  420  564  400  384  123
              A1-L  841  594  811  574  631  297
              A0-L 1189  841 1159  821  979  544
      -->
     <g id="titleblock-structure" style="fill:none;stroke:#000000;stroke-width:0.35;stroke-linecap:miter;stroke-miterlimit:4">
      <rect height="38" y="227" width="180" x="20"/>
      <path d="m 20,238 h 180"/>
      <path d="m 80,227 v 11"/>
      <path d="m 140,227 v 38"/>
      <path d="m 160,227 v 11"/>
      <path d="m 180,227 v 11"/>
      <path d="m 140,254 h 60"/>
      <path d="m 180,254 v 11"/>
     </g>
     <g id="titleblock-text-non-editable" style="font-size:3px;text-anchor:start;fill:#000000;font-family:osifont">
      <text y="230.5" x="21">Created by:</text>
      <text y="230.5" x="81">Title:</text>
      <text y="241.5" x="21">Supplementary information:</text>
      <text y="230.5" x="141">Size:</text>
      <text y="230.5" x="161">Sheet:</text>
      <text y="230.5" x="181">Scale:</text>
      <text y="241.5" x="141">Part number:</text>
      <text y="249.5" x="141">Drawing no.:</text>
      <text y="257.5" x="141">Date:</text>
      <text y="257.5" x="181">Revision:</text>
     </g>
     <!-- Set display:none to hide FreeCAD Logo -->
     <g stroke="#000" stroke-width="0.35" fill="none" id="freecad-logo" transform="translate(128.5,254)" style="display:inline" fill-rule="evenodd">
      <path d="m0.1524 0.15254v8.8549h1.9744v-3.4652h1.396v-1.3661h-1.396v-1.4745h3.4391v-2.5441l-5.4135-0.005z"/>
      <path d="m7.7927 3.4504-0.50715-0.176-0.48387-1.2366-0.76115 0.04-0.34718 1.2787-0.4859 0.23269-1.2119-0.53015-0.51188 0.56882 0.65892 1.1485-0.18006 0.50567-1.2366 0.48387 0.044064 0.76263 1.2787 0.34718 0.23269 0.4859-0.53421 1.2104 0.56882 0.51188 1.1485-0.65891 0.50973 0.18155 0.4798 1.2351 0.7667-0.04258 0.34311-1.2802 0.4859-0.23269 1.2145 0.5357 0.51188-0.56882-0.65891-1.1485 0.17748-0.51122 1.2351-0.4798-0.03851-0.76521-1.2802-0.34311-0.23269-0.4859 0.53163-1.216-0.56881-0.51184zm-0.5715 1.2244 0.23576 0.13679 0.20426 0.18519 0.16353 0.22101 0.11763 0.24572 0.06916 0.26489 0.01146 0.27146-0.03921 0.27139-0.08948 0.25764-0.14234 0.23834-0.17964 0.20167-0.22101 0.16353-0.24572 0.11763-0.26489 0.06916-0.27295 0.01553-0.2719-0.04-0.2576-0.089-0.2383-0.143-0.2002-0.183-0.165-0.217-0.1177-0.246-0.0676-0.269-0.0156-0.273 0.039206-0.2714 0.089484-0.25764 0.14085-0.23427 0.18113-0.20574 0.22101-0.16352 0.24572-0.11763 0.26895-0.06768 0.27147-0.01146 0.27139 0.03921 0.25764 0.08948z"/>
     </g>
    </g>
   </g>
   <g id="titleblock-text-editable" style="font-size:5px;text-anchor:start;fill:#000000;font-family:osifont">
    <text freecad:editable="AUTHOR_NAME" y="171" x="108">
     <tspan xml:space="preserve">Greg</tspan>
    </text>
    <text freecad:editable="DRAWING_TITLE" y="171" x="168">
     <tspan xml:space="preserve">Melody Box</tspan>
    </text>
    <text freecad:editable="SI-1" y="182" x="108">
     <tspan xml:space="preserve"/>
    </text>
    <text freecad:editable="FreeCAD_DRAWING" y="189" x="108">
     <tspan xml:space="preserve">FreeCAD DRAWING</tspan>
    </text>
    <text freecad:editable="SI-3" y="196" x="108">
     <tspan xml:space="preserve"/>
    </text>
    <text freecad:editable="FC-SI" y="171" x="233">
     <tspan xml:space="preserve">A4</tspan>
    </text>
    <text freecad:editable="FC-SH" y="171" x="251">
     <tspan xml:space="preserve">X / Y</tspan>
    </text>
    <text freecad:editable="FC-SC" y="171" x="271">
     <tspan xml:space="preserve">1</tspan>
    </text>
    <text freecad:editable="PN" y="181" x="231">
     <tspan xml:space="preserve">PN</tspan>
    </text>
    <text freecad:editable="DN" y="189" x="231">
     <tspan xml:space="preserve">DN</tspan>
    </text>
    <text freecad:editable="FC-DATE" y="197" x="231">
     <tspan xml:space="preserve">17/04/2022</tspan>
    </text>
    <text freecad:editable="FC-REV" y="197" x="269">
     <tspan xml:space="preserve">REV A</tspan>
    </text>
   </g>
   <!-- DrawingContent -->
  </g>
  <g stroke-linejoin="bevel" fill="none" stroke="black" stroke-width="1" id="DrawingContent" stroke-linecap="square" fill-rule="evenodd">
   <g font-family="Cantarell" fill="#ffffff" stroke="none" fill-opacity="1" font-weight="400" transform="matrix(1,0,0,1,950,890)" font-style="normal" font-size="38.8056">
    <path vector-effect="non-scaling-stroke" fill-rule="evenodd" d="M525,250 L525,-250 L-475,-250 L-475,-9.5891 L-525,-9.5891 L-525,60.4109 L-525,130.411 L-475,130.411 L-475,250 L525,250"/>
   </g>
   <g stroke-linejoin="bevel" font-family="Cantarell" fill="none" stroke="#000000" stroke-width="1" font-weight="400" stroke-linecap="square" transform="matrix(1,0,0,1,950,890)" font-style="normal" stroke-opacity="1" font-size="38.8056">
    <rect height="0" y="0" width="0" x="0"/>
   </g>
   <g font-family="Cantarell" fill="#ffffff" stroke="none" fill-opacity="1" font-weight="400" transform="matrix(1,0,0,1,950,890)" font-style="normal" font-size="38.8056">
    <path vector-effect="non-scaling-stroke" fill-rule="evenodd" d="M525,250 L525,-250 L-475,-250 L-475,-9.5891 L-475,60.4109 L-475,130.411 L-475,250 L525,250"/>
   </g>
   <g stroke-linejoin="bevel" font-family="Cantarell" fill="none" stroke="#000000" stroke-width="1" font-weight="400" stroke-linecap="square" transform="matrix(1,0,0,1,950,890)" font-style="normal" stroke-opacity="1" font-size="38.8056">
    <rect height="0" y="0" width="0" x="0"/>
   </g>
   <g font-family="Cantarell" fill="#ffffff" stroke="none" fill-opacity="1" font-weight="400" transform="matrix(1,0,0,1,950,890)" font-style="normal" font-size="38.8056">
    <path vector-effect="non-scaling-stroke" fill-rule="evenodd" d="M-475,60.4109 L-475,-9.5891 L-525,-9.5891 L-525,60.4109 L-475,60.4109"/>
   </g>
   <g stroke-linejoin="bevel" font-family="Cantarell" fill="none" stroke="#000000" stroke-width="1" font-weight="400" stroke-linecap="square" transform="matrix(1,0,0,1,950,890)" font-style="normal" stroke-opacity="1" font-size="38.8056">
    <rect height="0" y="0" width="0" x="0"/>
   </g>
   <g font-family="Cantarell" fill="#ffffff" stroke="none" fill-opacity="1" font-weight="400" transform="matrix(1,0,0,1,950,890)" font-style="normal" font-size="38.8056">
    <path vector-effect="non-scaling-stroke" fill-rule="evenodd" d="M-525,130.411 L-475,130.411 L-475,60.4109 L-525,60.4109 L-525,130.411"/>
   </g>
   <g stroke-linejoin="bevel" font-family="Cantarell" fill="none" stroke="#000000" stroke-width="1" font-weight="400" stroke-linecap="square" transform="matrix(1,0,0,1,950,890)" font-style="normal" stroke-opacity="1" font-size="38.8056">
    <rect height="0" y="0" width="0" x="0"/>
   </g>
   <g stroke-linejoin="bevel" font-family="Cantarell" fill="none" stroke="#000000" stroke-width="1" font-weight="400" stroke-linecap="round" transform="matrix(1,0,0,1,950,890)" font-style="normal" stroke-opacity="1" font-size="38.8056">
    <path vector-effect="non-scaling-stroke" fill-rule="evenodd" d="M-475,250 L-475,-250"/>
   </g>
   <g stroke-linejoin="bevel" font-family="Cantarell" fill="none" stroke="#000000" stroke-width="1" font-weight="400" stroke-linecap="round" transform="matrix(1,0,0,1,950,890)" font-style="normal" stroke-opacity="1" font-size="38.8056">
    <path vector-effect="non-scaling-stroke" fill-rule="evenodd" d="M525,250 L525,-250"/>
   </g>
   <g stroke-linejoin="bevel" font-family="Cantarell" fill="none" stroke="#000000" stroke-width="1" font-weight="400" stroke-linecap="round" transform="matrix(1,0,0,1,950,890)" font-style="normal" stroke-opacity="1" font-size="38.8056">
    <path vector-effect="non-scaling-stroke" fill-rule="evenodd" d="M525,250 L-475,250"/>
   </g>
   <g stroke-linejoin="bevel" font-family="Cantarell" fill="none" stroke="#000000" stroke-width="1" font-weight="400" stroke-linecap="round" transform="matrix(1,0,0,1,950,890)" font-style="normal" stroke-opacity="1" font-size="38.8056">
    <path vector-effect="non-scaling-stroke" fill-rule="evenodd" d="M525,-250 L-475,-250"/>
   </g>
   <g stroke-linejoin="bevel" font-family="Cantarell" fill="none" stroke="#000000" stroke-width="1" font-weight="400" stroke-linecap="round" transform="matrix(1,0,0,1,950,890)" font-style="normal" stroke-opacity="1" font-size="38.8056">
    <path vector-effect="non-scaling-stroke" fill-rule="evenodd" d="M-525,60.4109 L-525,-9.5891"/>
   </g>
   <g stroke-linejoin="bevel" font-family="Cantarell" fill="none" stroke="#000000" stroke-width="1" font-weight="400" stroke-linecap="round" transform="matrix(1,0,0,1,950,890)" font-style="normal" stroke-opacity="1" font-size="38.8056">
    <path vector-effect="non-scaling-stroke" fill-rule="evenodd" d="M-525,130.411 L-525,60.4109"/>
   </g>
   <g stroke-linejoin="bevel" font-family="Cantarell" fill="none" stroke="#000000" stroke-width="1" font-weight="400" stroke-linecap="round" transform="matrix(1,0,0,1,950,890)" font-style="normal" stroke-opacity="1" font-size="38.8056">
    <path vector-effect="non-scaling-stroke" fill-rule="evenodd" d="M-525,130.411 L-475,130.411"/>
   </g>
   <g stroke-linejoin="bevel" font-family="Cantarell" fill="none" stroke="#000000" stroke-width="1" font-weight="400" stroke-linecap="round" transform="matrix(1,0,0,1,950,890)" font-style="normal" stroke-opacity="1" font-size="38.8056">
    <path vector-effect="non-scaling-stroke" fill-rule="evenodd" d="M-525,-9.5891 L-475,-9.5891"/>
   </g>
   <g stroke-linejoin="bevel" font-family="Cantarell" fill="none" stroke="#000000" stroke-width="1" font-weight="400" stroke-linecap="round" transform="matrix(1,0,0,1,950,890)" font-style="normal" stroke-opacity="1" font-size="38.8056">
    <path vector-effect="non-scaling-stroke" fill-rule="evenodd" d="M-475,60.4109 L-525,60.4109"/>
   </g>
   <g stroke-linejoin="bevel" font-family="Cantarell" fill="none" stroke="#000000" stroke-width="1" font-weight="400" stroke-linecap="square" transform="matrix(1,0,0,1,950,890)" font-style="normal" stroke-opacity="1" font-size="38.8056">
    <rect height="0" y="0" width="0" x="0"/>
   </g>
   <g stroke-linejoin="bevel" font-family="Cantarell" fill="none" stroke="#000000" stroke-width="1" font-weight="400" stroke-linecap="square" transform="matrix(1,0,0,1,910.854,1245.5)" font-style="normal" stroke-opacity="1" font-size="38.8056">
    <text xml:space="preserve" font-family="osifont" fill="#000000" stroke="none" fill-opacity="1" font-weight="400" font-style="normal" font-size="50" y="70" x="4">100.00</text>
   </g>
   <g stroke-linejoin="bevel" font-family="Cantarell" fill="none" stroke="#000000" stroke-width="3.5" font-weight="400" stroke-linecap="round" transform="matrix(1,0,0,1,950,890)" font-style="normal" stroke-opacity="1" font-size="38.8056">
    <path vector-effect="none" fill-rule="evenodd" d="M525,440.748 L-475,440.748 M-475,250 L-475,468.748 M525,250 L525,468.748"/>
   </g>
   <g stroke-linejoin="bevel" font-family="Cantarell" fill="#000000" stroke="#000000" stroke-width="3.5" fill-opacity="1" font-weight="400" stroke-linecap="round" transform="matrix(1,0,0,1,475,1330.75)" font-style="normal" stroke-opacity="1" font-size="38.8056">
    <path vector-effect="none" fill-rule="evenodd" d="M0,0 L50,8.33333 L50,-8.33333 L0,0"/>
   </g>
   <g stroke-linejoin="bevel" font-family="Cantarell" fill="#000000" stroke="#000000" stroke-width="3.5" fill-opacity="1" font-weight="400" stroke-linecap="round" transform="matrix(1,0,0,1,1475,1330.75)" font-style="normal" stroke-opacity="1" font-size="38.8056">
    <path vector-effect="none" fill-rule="evenodd" d="M0,0 L-50,-8.33333 L-50,8.33333 L0,0"/>
   </g>
   <g stroke-linejoin="bevel" font-family="Cantarell" fill="none" stroke="#000000" stroke-width="1" font-weight="400" stroke-linecap="square" transform="matrix(1,0,0,1,950,890)" font-style="normal" stroke-opacity="1" font-size="38.8056">
    <rect height="0" y="0" width="0" x="0"/>
   </g>
   <g stroke-linejoin="bevel" font-family="Cantarell" fill="none" stroke="#000000" stroke-width="1" font-weight="400" stroke-linecap="square" transform="matrix(0,-1,1,0,282.805,988.521)" font-style="normal" stroke-opacity="1" font-size="38.8056">
    <text xml:space="preserve" font-family="osifont" fill="#000000" stroke="none" fill-opacity="1" font-weight="400" font-style="normal" font-size="50" y="70" x="4">50.00</text>
   </g>
   <g stroke-linejoin="bevel" font-family="Cantarell" fill="none" stroke="#000000" stroke-width="3.5" font-weight="400" stroke-linecap="round" transform="matrix(1,0,0,1,950,890)" font-style="normal" stroke-opacity="1" font-size="38.8056">
    <path vector-effect="none" fill-rule="evenodd" d="M-581.945,250 L-581.945,-250 M-475,-250 L-609.945,-250 M-475,250 L-609.945,250"/>
   </g>
   <g stroke-linejoin="bevel" font-family="Cantarell" fill="#000000" stroke="#000000" stroke-width="3.5" fill-opacity="1" font-weight="400" stroke-linecap="round" transform="matrix(1,0,0,1,368.055,640)" font-style="normal" stroke-opacity="1" font-size="38.8056">
    <path vector-effect="none" fill-rule="evenodd" d="M0,0 L-8.33333,50 L8.33333,50 L0,0"/>
   </g>
   <g stroke-linejoin="bevel" font-family="Cantarell" fill="#000000" stroke="#000000" stroke-width="3.5" fill-opacity="1" font-weight="400" stroke-linecap="round" transform="matrix(1,0,0,1,368.055,1140)" font-style="normal" stroke-opacity="1" font-size="38.8056">
    <path vector-effect="none" fill-rule="evenodd" d="M0,0 L8.33333,-50 L-8.33333,-50 L0,0"/>
   </g>
   <g font-family="Cantarell" fill="#ffffff" stroke="none" fill-opacity="1" font-weight="400" transform="matrix(1,0,0,1,2100,890)" font-style="normal" font-size="38.8056">
    <path vector-effect="non-scaling-stroke" fill-rule="evenodd" d="M525,110.411 L525,130.411 L475,130.411 L475,250 L-525,250 L-525,-250 L475,-250 L475,-9.5891 L525,-9.5891 L525,10.4109 L525,110.411"/>
   </g>
   <g stroke-linejoin="bevel" font-family="Cantarell" fill="none" stroke="#000000" stroke-width="1" font-weight="400" stroke-linecap="square" transform="matrix(1,0,0,1,2100,890)" font-style="normal" stroke-opacity="1" font-size="38.8056">
    <rect height="0" y="0" width="0" x="0"/>
   </g>
   <g font-family="Cantarell" fill="#ffffff" stroke="none" fill-opacity="1" font-weight="400" transform="matrix(1,0,0,1,2100,890)" font-style="normal" font-size="38.8056">
    <path vector-effect="non-scaling-stroke" fill-rule="evenodd" d="M475,250 L475,130.411 L475,110.411 L475,10.4109 L475,-9.5891 L475,-250 L-525,-250 L-525,250 L475,250"/>
   </g>
   <g stroke-linejoin="bevel" font-family="Cantarell" fill="none" stroke="#000000" stroke-width="1" font-weight="400" stroke-linecap="square" transform="matrix(1,0,0,1,2100,890)" font-style="normal" stroke-opacity="1" font-size="38.8056">
    <rect height="0" y="0" width="0" x="0"/>
   </g>
   <g font-family="Cantarell" fill="#ffffff" stroke="none" fill-opacity="1" font-weight="400" transform="matrix(1,0,0,1,2100,890)" font-style="normal" font-size="38.8056">
    <path vector-effect="non-scaling-stroke" fill-rule="evenodd" d="M475,110.411 L525,110.411 L525,10.4109 L475,10.4109 L475,110.411"/>
   </g>
   <g stroke-linejoin="bevel" font-family="Cantarell" fill="none" stroke="#000000" stroke-width="1" font-weight="400" stroke-linecap="square" transform="matrix(1,0,0,1,2100,890)" font-style="normal" stroke-opacity="1" font-size="38.8056">
    <rect height="0" y="0" width="0" x="0"/>
   </g>
   <g font-family="Cantarell" fill="#ffffff" stroke="none" fill-opacity="1" font-weight="400" transform="matrix(1,0,0,1,2100,890)" font-style="normal" font-size="38.8056">
    <path vector-effect="non-scaling-stroke" fill-rule="evenodd" d="M525,-9.5891 L525,10.4109 L475,10.4109 L475,-9.5891 L525,-9.5891"/>
   </g>
   <g stroke-linejoin="bevel" font-family="Cantarell" fill="none" stroke="#000000" stroke-width="1" font-weight="400" stroke-linecap="square" transform="matrix(1,0,0,1,2100,890)" font-style="normal" stroke-opacity="1" font-size="38.8056">
    <rect height="0" y="0" width="0" x="0"/>
   </g>
   <g font-family="Cantarell" fill="#ffffff" stroke="none" fill-opacity="1" font-weight="400" transform="matrix(1,0,0,1,2100,890)" font-style="normal" font-size="38.8056">
    <path vector-effect="non-scaling-stroke" fill-rule="evenodd" d="M525,110.411 L525,130.411 L475,130.411 L475,110.411 L525,110.411"/>
   </g>
   <g stroke-linejoin="bevel" font-family="Cantarell" fill="none" stroke="#000000" stroke-width="1" font-weight="400" stroke-linecap="square" transform="matrix(1,0,0,1,2100,890)" font-style="normal" stroke-opacity="1" font-size="38.8056">
    <rect height="0" y="0" width="0" x="0"/>
   </g>
   <g stroke-linejoin="bevel" font-family="Cantarell" fill="none" stroke="#000000" stroke-width="1" font-weight="400" stroke-linecap="round" transform="matrix(1,0,0,1,2100,890)" font-style="normal" stroke-opacity="1" font-size="38.8056">
    <path vector-effect="non-scaling-stroke" fill-rule="evenodd" d="M475,250 L475,-250"/>
   </g>
   <g stroke-linejoin="bevel" font-family="Cantarell" fill="none" stroke="#000000" stroke-width="1" font-weight="400" stroke-linecap="round" transform="matrix(1,0,0,1,2100,890)" font-style="normal" stroke-opacity="1" font-size="38.8056">
    <path vector-effect="non-scaling-stroke" fill-rule="evenodd" d="M475,250 L-525,250"/>
   </g>
   <g stroke-linejoin="bevel" font-family="Cantarell" fill="none" stroke="#000000" stroke-width="1" font-weight="400" stroke-linecap="round" transform="matrix(1,0,0,1,2100,890)" font-style="normal" stroke-opacity="1" font-size="38.8056">
    <path vector-effect="non-scaling-stroke" fill-rule="evenodd" d="M475,-250 L-525,-250"/>
   </g>
   <g stroke-linejoin="bevel" font-family="Cantarell" fill="none" stroke="#000000" stroke-width="1" font-weight="400" stroke-linecap="round" transform="matrix(1,0,0,1,2100,890)" font-style="normal" stroke-opacity="1" font-size="38.8056">
    <path vector-effect="non-scaling-stroke" fill-rule="evenodd" d="M-525,250 L-525,-250"/>
   </g>
   <g stroke-linejoin="bevel" font-family="Cantarell" fill="none" stroke="#000000" stroke-width="1" font-weight="400" stroke-linecap="round" transform="matrix(1,0,0,1,2100,890)" font-style="normal" stroke-opacity="1" font-size="38.8056">
    <path vector-effect="non-scaling-stroke" fill-rule="evenodd" d="M525,-9.5891 L525,10.4109"/>
   </g>
   <g stroke-linejoin="bevel" font-family="Cantarell" fill="none" stroke="#000000" stroke-width="1" font-weight="400" stroke-linecap="round" transform="matrix(1,0,0,1,2100,890)" font-style="normal" stroke-opacity="1" font-size="38.8056">
    <path vector-effect="non-scaling-stroke" fill-rule="evenodd" d="M525,110.411 L525,130.411"/>
   </g>
   <g stroke-linejoin="bevel" font-family="Cantarell" fill="none" stroke="#000000" stroke-width="1" font-weight="400" stroke-linecap="round" transform="matrix(1,0,0,1,2100,890)" font-style="normal" stroke-opacity="1" font-size="38.8056">
    <path vector-effect="non-scaling-stroke" fill-rule="evenodd" d="M475,110.411 L525,110.411"/>
   </g>
   <g stroke-linejoin="bevel" font-family="Cantarell" fill="none" stroke="#000000" stroke-width="1" font-weight="400" stroke-linecap="round" transform="matrix(1,0,0,1,2100,890)" font-style="normal" stroke-opacity="1" font-size="38.8056">
    <path vector-effect="non-scaling-stroke" fill-rule="evenodd" d="M475,10.4109 L525,10.4109"/>
   </g>
   <g stroke-linejoin="bevel" font-family="Cantarell" fill="none" stroke="#000000" stroke-width="1" font-weight="400" stroke-linecap="round" transform="matrix(1,0,0,1,2100,890)" font-style="normal" stroke-opacity="1" font-size="38.8056">
    <path vector-effect="non-scaling-stroke" fill-rule="evenodd" d="M525,110.411 L525,10.4109"/>
   </g>
   <g stroke-linejoin="bevel" font-family="Cantarell" fill="none" stroke="#000000" stroke-width="1" font-weight="400" stroke-linecap="round" transform="matrix(1,0,0,1,2100,890)" font-style="normal" stroke-opacity="1" font-size="38.8056">
    <path vector-effect="non-scaling-stroke" fill-rule="evenodd" d="M525,-9.5891 L475,-9.5891"/>
   </g>
   <g stroke-linejoin="bevel" font-family="Cantarell" fill="none" stroke="#000000" stroke-width="1" font-weight="400" stroke-linecap="round" transform="matrix(1,0,0,1,2100,890)" font-style="normal" stroke-opacity="1" font-size="38.8056">
    <path vector-effect="non-scaling-stroke" fill-rule="evenodd" d="M525,130.411 L475,130.411"/>
   </g>
   <g stroke-linejoin="bevel" font-family="Cantarell" fill="none" stroke="#000000" stroke-width="1" font-weight="400" stroke-linecap="square" transform="matrix(1,0,0,1,2100,890)" font-style="normal" stroke-opacity="1" font-size="38.8056">
    <rect height="0" y="0" width="0" x="0"/>
   </g>
   <g stroke-linejoin="bevel" font-family="Cantarell" fill="none" stroke="#000000" stroke-width="1" font-weight="400" stroke-linecap="square" transform="matrix(1,0,0,1,2028.03,1260)" font-style="normal" stroke-opacity="1" font-size="38.8056">
    <text xml:space="preserve" font-family="osifont" fill="#000000" stroke="none" fill-opacity="1" font-weight="400" font-style="normal" font-size="50" y="70" x="4">100.00</text>
   </g>
   <g stroke-linejoin="bevel" font-family="Cantarell" fill="none" stroke="#000000" stroke-width="3.5" font-weight="400" stroke-linecap="round" transform="matrix(1,0,0,1,2100,890)" font-style="normal" stroke-opacity="1" font-size="38.8056">
    <path vector-effect="none" fill-rule="evenodd" d="M475,455.25 L-525,455.25 M-525,250 L-525,483.25 M475,250 L475,483.25"/>
   </g>
   <g stroke-linejoin="bevel" font-family="Cantarell" fill="#000000" stroke="#000000" stroke-width="3.5" fill-opacity="1" font-weight="400" stroke-linecap="round" transform="matrix(1,0,0,1,1575,1345.25)" font-style="normal" stroke-opacity="1" font-size="38.8056">
    <path vector-effect="none" fill-rule="evenodd" d="M0,0 L50,8.33333 L50,-8.33333 L0,0"/>
   </g>
   <g stroke-linejoin="bevel" font-family="Cantarell" fill="#000000" stroke="#000000" stroke-width="3.5" fill-opacity="1" font-weight="400" stroke-linecap="round" transform="matrix(1,0,0,1,2575,1345.25)" font-style="normal" stroke-opacity="1" font-size="38.8056">
    <path vector-effect="none" fill-rule="evenodd" d="M0,0 L-50,-8.33333 L-50,8.33333 L0,0"/>
   </g>
  </g>
 </g>
</svg>
